<svg width="32" height="32" viewBox="0 0 32 32" fill="none" xmlns="http://www.w3.org/2000/svg">
<path d="M16.0036 21.6C14.4768 21.6 13.0124 21.01 11.9327 19.9598C10.8531 18.9096 10.2465 17.4852 10.2465 16C10.2465 14.5148 10.8531 13.0904 11.9327 12.0402C13.0124 10.99 14.4768 10.4 16.0036 10.4C17.5305 10.4 18.9948 10.99 20.0745 12.0402C21.1542 13.0904 21.7607 14.5148 21.7607 16C21.7607 17.4852 21.1542 18.9096 20.0745 19.9598C18.9948 21.01 17.5305 21.6 16.0036 21.6M28.2251 17.552C28.2909 17.04 28.3403 16.528 28.3403 16C28.3403 15.472 28.2909 14.944 28.2251 14.4L31.6958 11.792C32.0084 11.552 32.0906 11.12 31.8932 10.768L28.6035 5.232C28.4061 4.88 27.9619 4.736 27.6001 4.88L23.5043 6.48C22.649 5.856 21.7607 5.312 20.7245 4.912L20.1158 0.672003C20.0824 0.48355 19.9815 0.312686 19.831 0.189685C19.6804 0.0666845 19.49 -0.000511639 19.2934 2.93355e-06H12.7139C12.3026 2.93355e-06 11.9572 0.288003 11.8914 0.672003L11.2828 4.912C10.2465 5.312 9.3583 5.856 8.50296 6.48L4.40719 4.88C4.04532 4.736 3.6012 4.88 3.40381 5.232L0.114042 10.768C-0.0997926 11.12 -0.00109928 11.552 0.311429 11.792L3.78214 14.4C3.71634 14.944 3.66699 15.472 3.66699 16C3.66699 16.528 3.71634 17.04 3.78214 17.552L0.311429 20.208C-0.00109928 20.448 -0.0997926 20.88 0.114042 21.232L3.40381 26.768C3.6012 27.12 4.04532 27.248 4.40719 27.12L8.50296 25.504C9.3583 26.144 10.2465 26.688 11.2828 27.088L11.8914 31.328C11.9572 31.712 12.3026 32 12.7139 32H19.2934C19.7046 32 20.05 31.712 20.1158 31.328L20.7245 27.088C21.7607 26.672 22.649 26.144 23.5043 25.504L27.6001 27.12C27.9619 27.248 28.4061 27.12 28.6035 26.768L31.8932 21.232C32.0906 20.88 32.0084 20.448 31.6958 20.208L28.2251 17.552V17.552Z" fill="#555555"/>
</svg>
