<svg width="24" height="24" viewBox="0 0 24 24" fill="none" xmlns="http://www.w3.org/2000/svg">
<path d="M12 2.25C6.624 2.25 2.25 6.624 2.25 12C2.25 17.376 6.624 21.75 12 21.75C17.376 21.75 21.75 17.376 21.75 12C21.75 6.624 17.376 2.25 12 2.25ZM12 3.75C16.5653 3.75 20.25 7.43475 20.25 12C20.25 14.0445 19.5075 15.9045 18.2812 17.3438L6.7725 5.6025C8.24759 4.39773 10.0954 3.7429 12 3.75ZM5.71875 6.65625L17.2275 18.3975C15.7524 19.6023 13.9046 20.2571 12 20.25C7.43475 20.25 3.75 16.5653 3.75 12C3.75 9.9555 4.4925 8.0955 5.71875 6.65625Z" fill="#555555"/>
</svg>
